<?xml version="1.0" encoding="UTF-8"?>
<svg xmlns="http://www.w3.org/2000/svg" xmlns:xlink="http://www.w3.org/1999/xlink" width="64pt" height="64pt" viewBox="0 0 64 64" version="1.1">
<g id="surface1078068">
<path style=" stroke:none;fill-rule:nonzero;fill:rgb(95.294118%,95.294118%,95.294118%);fill-opacity:1;" d="M 9.5 12 L 54.648438 12 C 57.050781 12 58.75 14.351562 57.949219 16.601562 L 51.101562 37.199219 C 50.148438 40.050781 47.449219 42 44.449219 42 L 9.5 42 Z M 9.5 12 "/>
<path style=" stroke:none;fill-rule:nonzero;fill:rgb(95.294118%,95.294118%,95.294118%);fill-opacity:1;" d="M 16.5 58.5 C 16.5 60.433594 14.933594 62 13 62 C 11.066406 62 9.5 60.433594 9.5 58.5 C 9.5 56.566406 11.066406 55 13 55 C 14.933594 55 16.5 56.566406 16.5 58.5 Z M 16.5 58.5 "/>
<path style=" stroke:none;fill-rule:nonzero;fill:rgb(95.294118%,95.294118%,95.294118%);fill-opacity:1;" d="M 41.5 58.5 C 41.5 60.433594 39.933594 62 38 62 C 36.066406 62 34.5 60.433594 34.5 58.5 C 34.5 56.566406 36.066406 55 38 55 C 39.933594 55 41.5 56.566406 41.5 58.5 Z M 41.5 58.5 "/>
<path style=" stroke:none;fill-rule:nonzero;fill:rgb(96.862745%,53.725493%,23.137255%);fill-opacity:1;" d="M 38 53.5 C 35.25 53.5 33 55.75 33 58.5 C 33 61.25 35.25 63.5 38 63.5 C 40.75 63.5 43 61.25 43 58.5 C 43 55.75 40.75 53.5 38 53.5 Z M 38 60.5 C 36.898438 60.5 36 59.601562 36 58.5 C 36 57.398438 36.898438 56.5 38 56.5 C 39.101562 56.5 40 57.398438 40 58.5 C 40 59.601562 39.101562 60.5 38 60.5 Z M 38 60.5 "/>
<path style=" stroke:none;fill-rule:nonzero;fill:rgb(96.862745%,53.725493%,23.137255%);fill-opacity:1;" d="M 58.699219 12.601562 C 57.75 11.300781 56.25 10.5 54.648438 10.5 L 11 10.5 L 11 7 C 11 6.148438 10.351562 5.5 9.5 5.5 L 4.5 5.5 C 3.648438 5.5 3 6.148438 3 7 C 3 7.851562 3.648438 8.5 4.5 8.5 L 8 8.5 L 8 45.5 C 8 48.25 10.25 50.5 13 50.5 L 38 50.5 C 38.851562 50.5 39.5 49.851562 39.5 49 C 39.5 48.148438 38.851562 47.5 38 47.5 L 13 47.5 C 11.898438 47.5 11 46.601562 11 45.5 L 11 13.5 L 54.648438 13.5 C 55.300781 13.5 55.898438 13.800781 56.25 14.351562 C 56.648438 14.898438 56.75 15.550781 56.5 16.148438 L 49.648438 36.75 C 48.898438 39 46.851562 40.5 44.449219 40.5 L 16.5 40.5 C 15.648438 40.5 15 41.148438 15 42 C 15 42.851562 15.648438 43.5 16.5 43.5 L 44.449219 43.5 C 48.101562 43.5 51.351562 41.148438 52.5 37.699219 L 59.351562 17.101562 C 59.898438 15.550781 59.648438 13.898438 58.699219 12.601562 Z M 58.699219 12.601562 "/>
<path style=" stroke:none;fill-rule:nonzero;fill:rgb(96.862745%,53.725493%,23.137255%);fill-opacity:1;" d="M 13 53.5 C 10.25 53.5 8 55.75 8 58.5 C 8 61.25 10.25 63.5 13 63.5 C 15.75 63.5 18 61.25 18 58.5 C 18 55.75 15.75 53.5 13 53.5 Z M 13 60.5 C 11.898438 60.5 11 59.601562 11 58.5 C 11 57.398438 11.898438 56.5 13 56.5 C 14.101562 56.5 15 57.398438 15 58.5 C 15 59.601562 14.101562 60.5 13 60.5 Z M 13 60.5 "/>
</g>
</svg>
