<?xml version="1.0" encoding="UTF-8"?>
<svg xmlns="http://www.w3.org/2000/svg" xmlns:xlink="http://www.w3.org/1999/xlink" width="64pt" height="64pt" viewBox="0 0 64 64" version="1.1">
<g id="surface1091573">
<path style=" stroke:none;fill-rule:nonzero;fill:rgb(89.411765%,79.215688%,65.098041%);fill-opacity:1;" d="M 39.855469 3.367188 L 47.582031 5.4375 L 45.253906 14.132812 L 37.523438 12.0625 L 39.855469 3.367188 "/>
<path style=" stroke:none;fill-rule:nonzero;fill:rgb(80.784315%,71.764708%,59.215689%);fill-opacity:1;" d="M 44.660156 4.6875 L 42.339844 13.351562 L 45.238281 14.128906 L 47.558594 5.464844 L 44.660156 4.6875 "/>
<path style=" stroke:none;fill-rule:nonzero;fill:rgb(43.137255%,78.039217%,69.01961%);fill-opacity:1;" d="M 45.648438 12.699219 L 37.898438 10.648438 C 37.351562 10.5 36.800781 10.800781 36.699219 11.351562 L 35.898438 14.25 C 35.75 14.800781 36.050781 15.351562 36.601562 15.449219 L 32.601562 30.449219 C 28.699219 29.550781 24.699219 31.898438 23.648438 35.800781 L 17.199219 60.300781 L 40.75 60.398438 L 45.398438 41.648438 C 46.449219 37.75 44.199219 33.699219 40.351562 32.550781 L 44.351562 17.550781 C 44.898438 17.699219 45.449219 17.398438 45.550781 16.851562 L 46.351562 13.949219 C 46.5 13.398438 46.148438 12.851562 45.648438 12.699219 "/>
<path style=" stroke:none;fill-rule:nonzero;fill:rgb(39.215687%,70.588237%,62.7451%);fill-opacity:1;" d="M 37.773438 32.355469 C 40.183594 34.136719 41.390625 37.289062 40.550781 40.351562 L 35.257812 60.375 L 40.335938 60.398438 L 45.351562 41.648438 C 45.839844 39.839844 45.71875 37.984375 44.917969 36.46875 C 42.832031 32.507812 37.773438 32.355469 37.773438 32.355469 "/>
<path style=" stroke:none;fill-rule:nonzero;fill:rgb(39.215687%,70.588237%,62.7451%);fill-opacity:1;" d="M 41.417969 16.769531 L 37.410156 31.730469 L 40.101562 32.449219 C 40.167969 32.46875 40.238281 32.488281 40.308594 32.507812 L 44.316406 17.546875 L 41.417969 16.769531 "/>
<path style=" stroke:none;fill-rule:nonzero;fill:rgb(100%,100%,100%);fill-opacity:1;" d="M 24.898438 54.398438 C 24.75 54.398438 24.648438 54.398438 24.5 54.351562 C 23.699219 54.148438 23.25 53.300781 23.449219 52.5 L 27.550781 37.199219 C 27.75 36.398438 28.601562 35.949219 29.398438 36.148438 C 30.199219 36.351562 30.648438 37.199219 30.449219 38 L 26.351562 53.300781 C 26.148438 53.949219 25.550781 54.398438 24.898438 54.398438 Z M 24.898438 54.398438 "/>
<path style=" stroke:none;fill-rule:nonzero;fill:rgb(27.058825%,29.411766%,32.941177%);fill-opacity:1;" d="M 47.949219 4 L 40.25 1.949219 C 39.449219 1.75 38.648438 2.199219 38.398438 3 L 36.699219 9.300781 C 36 9.601562 35.449219 10.199219 35.199219 10.949219 L 34.398438 13.851562 C 34.25 14.5 34.300781 15.148438 34.648438 15.75 C 34.699219 15.851562 34.800781 15.949219 34.851562 16.050781 L 31.5 28.75 C 27.300781 28.449219 23.351562 31.199219 22.199219 35.398438 L 15.699219 59.699219 C 14.75 59.449219 13.898438 58.898438 13.300781 58.199219 C 13 57.851562 12.601562 57.648438 12.148438 57.648438 C 11.699219 57.648438 11.300781 57.851562 11 58.199219 C 10.101562 59.300781 8.699219 59.898438 7.199219 59.898438 C 5.699219 59.898438 4.300781 59.300781 3.398438 58.199219 C 2.851562 57.550781 1.898438 57.5 1.300781 58.050781 C 0.648438 58.601562 0.601562 59.550781 1.148438 60.148438 C 2.648438 61.898438 4.851562 62.898438 7.25 62.898438 C 9.101562 62.898438 10.800781 62.300781 12.199219 61.25 C 13.601562 62.351562 15.300781 62.898438 17.148438 62.898438 C 19 62.898438 20.699219 62.300781 22.101562 61.25 C 23.5 62.351562 25.199219 62.898438 27.050781 62.898438 C 28.851562 62.898438 30.601562 62.300781 31.949219 61.25 C 33.351562 62.351562 35.101562 63 36.949219 63 C 37 63 37 63 37.050781 63 C 38.898438 63 40.699219 62.351562 42.101562 61.25 C 43.5 62.300781 45.199219 62.898438 47 62.898438 C 47.851562 62.898438 48.5 62.25 48.5 61.398438 C 48.5 60.550781 47.851562 59.898438 47 59.898438 C 45.5 59.898438 44.101562 59.300781 43.199219 58.199219 C 43.050781 58.050781 42.898438 57.898438 42.699219 57.800781 L 46.851562 42 C 47.449219 39.699219 47.148438 37.25 45.949219 35.148438 C 45.050781 33.601562 43.699219 32.351562 42.148438 31.550781 L 45.550781 18.800781 C 46.25 18.5 46.800781 17.898438 47.050781 17.148438 L 47.851562 14.25 C 48 13.601562 47.949219 12.949219 47.601562 12.351562 C 47.550781 12.25 47.449219 12.148438 47.398438 12.050781 L 49 5.851562 C 49.25 5.050781 48.75 4.199219 47.949219 4 Z M 43.351562 36.699219 C 44.148438 38.101562 44.351562 39.699219 43.949219 41.25 L 39.050781 59.601562 C 38.398438 59.898438 37.699219 60.050781 36.949219 60.050781 L 36.898438 60.050781 C 35.449219 60.050781 34.050781 59.398438 33.148438 58.351562 L 33.050781 58.25 C 32.75 57.898438 32.351562 57.699219 31.898438 57.699219 C 31.449219 57.699219 31.050781 57.898438 30.75 58.25 C 29.851562 59.351562 28.449219 59.949219 26.949219 59.949219 C 25.449219 59.949219 24.050781 59.351562 23.148438 58.25 C 22.851562 57.898438 22.449219 57.699219 22 57.699219 C 21.550781 57.699219 21.148438 57.898438 20.851562 58.25 C 20.300781 58.898438 19.601562 59.351562 18.800781 59.648438 L 25.050781 36.25 C 25.898438 33.050781 29.199219 31.148438 32.398438 32 L 39.648438 33.949219 C 41.25 34.300781 42.550781 35.300781 43.351562 36.699219 Z M 39.25 30.648438 L 34.398438 29.351562 L 37.648438 17.300781 L 38.300781 17.5 L 42.449219 18.601562 Z M 44.25 15.949219 L 40.851562 15.050781 L 37.5 14.148438 L 38 12.199219 L 44.75 14 Z M 44.550781 10.851562 L 39.699219 9.550781 L 40.851562 5.199219 L 45.699219 6.5 Z M 61.75 60.648438 C 60.898438 60.648438 60.25 60 60.25 59.148438 C 60.25 58.300781 60.898438 57.648438 61.75 57.648438 C 62.601562 57.648438 63.25 58.300781 63.25 59.148438 C 63.25 60 62.601562 60.648438 61.75 60.648438 Z M 61.75 60.648438 "/>
<path style=" stroke:none;fill-rule:nonzero;fill:rgb(27.058825%,29.411766%,32.941177%);fill-opacity:1;" d="M 46.898438 62.898438 C 44.550781 62.898438 42.300781 61.898438 40.800781 60.148438 C 40.25 59.5 40.351562 58.550781 40.949219 58.050781 C 41.601562 57.5 42.550781 57.601562 43.050781 58.199219 C 43.949219 59.300781 45.351562 59.898438 46.851562 59.898438 C 48.351562 59.898438 49.75 59.300781 50.648438 58.199219 C 50.949219 57.851562 51.351562 57.648438 51.800781 57.648438 C 52.25 57.648438 52.648438 57.851562 52.949219 58.199219 C 53.851562 59.25 55.199219 59.851562 56.601562 59.898438 C 57.449219 59.898438 58.101562 60.601562 58.050781 61.449219 C 58.050781 62.25 57.351562 62.898438 56.550781 62.898438 L 56.5 62.898438 C 54.75 62.851562 53.101562 62.25 51.75 61.25 C 50.5 62.300781 48.75 62.898438 46.898438 62.898438 Z M 46.898438 62.898438 "/>
</g>
</svg>
