<svg width="160" height="160" viewBox="0 0 160 160" fill="none" xmlns="http://www.w3.org/2000/svg">
<path d="M119.5 96.5L105.251 101.5L93.3763 105.625C94.2513 104.375 94.6263 102.875 94.5 101.25C94.2513 97.625 91 94.875 87.25 94.875H68.5C63 88.25 54.875 84.375 46.25 84.375C39.375 84.375 32.625 85.625 26.25 88L25.875 88.125V116.25L65.125 123.75C69.75 124.625 74.5 124.25 79 122.625C94.4988 116.625 127.75 104.251 127.75 104.251C127.75 104.251 127.75 104.251 128.125 101.251C128.5 97.5 123.25 95.375 119.5 96.5Z" fill="#F4D7CB"/>
<path d="M70 128C68.125 128 66.25 127.874 64.375 127.5L25.25 119.75C23.5 119.375 22.25 117.875 22.25 116.126V88C22.25 86.5 23.25 85 24.625 84.4988L25 84.3738C31.875 81.7488 39 80.4988 46.375 80.4988C55.5 80.4988 64.25 84.3738 70.375 90.9975H87.375C92.75 90.9975 97.375 94.8738 98.2488 99.8738L118.375 92.875C118.5 92.875 118.5 92.875 118.625 92.75C119.625 92.5 120.625 92.375 121.624 92.375C124.875 92.375 128 93.625 129.999 95.7488C131.499 97.375 132.124 99.4988 131.874 101.624L131.499 104.624C131.373 105.999 130.374 107.249 129.124 107.749C128.749 107.874 95.7488 120.249 80.3738 126.124C77 127.375 73.5 128 70 128ZM29.75 113L65.75 120.125C69.625 120.875 73.75 120.5 77.5 119.125C90.625 114.125 116.5 104.375 124.125 101.625L124.251 101C124.125 100.75 123.001 100 121.501 100C121.126 100 120.876 100 120.626 100.125L94.7513 109.125C94.1263 109.375 93.3763 109.375 92.6263 109.251C91.5 109 90.5 108.125 90 107C89.5 105.875 89.75 104.625 90.375 103.625C90.625 103.249 91 102.5 90.875 101.624C90.75 100 89.25 98.75 87.375 98.75H68.625C67.5 98.75 66.5 98.25 65.75 97.375C61 91.5 53.875 88.2488 46.375 88.2488C40.75 88.2488 35.125 89.1238 29.75 90.875V113Z" fill="#454B54"/>
<path d="M14.5 122.5H27C29.25 122.5 31.125 120.625 31.125 118.375V84.5001C31.125 82.2501 29.25 80.3751 27 80.3751H14.5" fill="#E0E0E0"/>
<path d="M27 126.25H14.5C12.375 126.25 10.75 124.625 10.75 122.5C10.75 120.375 12.375 118.75 14.5 118.75H27C27.125 118.75 27.375 118.625 27.375 118.375V84.5C27.375 84.375 27.25 84.125 27 84.125H14.5C12.375 84.125 10.75 82.5 10.75 80.375C10.75 78.25 12.375 76.625 14.5 76.625H27C31.375 76.625 34.875 80.125 34.875 84.5V118.375C34.75 122.75 31.25 126.25 27 126.25Z" fill="#454B54"/>
<path d="M65.625 29.125C71.5 29.125 76.625 31.5 80 35.25C83.5 31.5 88.75 29.125 94.375 29.125C105 29.125 113.75 37.125 113.75 47.125C113.75 52.75 111 57.75 106.625 61L80 80.625L53.875 61.375C49.25 58.125 46.25 52.875 46.25 47.125C46.25 37.25 54.875 29.125 65.625 29.125Z" fill="#E780B3"/>
<path d="M94.375 29.125C94.3687 29.125 94.3625 29.125 94.3563 29.125C94.3538 29.125 94.35 29.125 94.3475 29.125C94.345 29.125 94.3425 29.125 94.3388 29.125C93.4125 29.1263 92.4963 29.1925 91.5963 29.3188C90.7213 29.4438 89.86 29.6288 89 29.875C96.9987 32 102.875 38.875 102.875 47.125C102.875 52.75 100 54.875 95.75 61L80 80.625L106.625 61C110.875 57.75 113.75 52.75 113.75 47.125C113.75 37.125 105 29.125 94.375 29.125Z" fill="#D174A3"/>
<path d="M65.625 33.375C57.625 33.375 51.125 39.5 51.125 47.125C51.125 49.25 52.75 50.875 54.875 50.875C56.875 50.875 58.625 49.125 58.625 47.125C58.625 43.625 61.75 40.875 65.625 40.875C67.75 40.875 69.375 39.25 69.375 37.125C69.375 35 67.75 33.375 65.625 33.375Z" fill="#FAE6F0"/>
<path d="M80 84.375C79.25 84.375 78.375 84.125 77.75 83.625L51.625 64.375C45.875 60.375 42.5 54 42.5 47.125C42.5 35.125 52.875 25.375 65.625 25.375C71 25.375 76.125 27.125 80.125 30.125C84.125 27 89.2512 25.375 94.5 25.375C107.25 25.375 117.625 35.125 117.625 47.125C117.625 53.625 114.5 59.875 109.125 64L82.25 83.625C81.625 84.125 80.75 84.375 80 84.375ZM65.625 32.875C57 32.875 50 39.25 50 47.125C50 51.5 52.125 55.625 56 58.25L80 76L104.5 58C108.001 55.25 110 51.375 110 47.125C110 39.25 103 32.875 94.375 32.875C89.875 32.875 85.625 34.625 82.75 37.875C81.9987 38.625 81 39 80 39C79 39 78 38.5 77.25 37.75C74.375 34.625 70.125 32.875 65.625 32.875ZM93.375 109.25H71.875C69.75 109.25 68.125 107.624 68.125 105.5C68.125 103.375 69.75 101.75 71.875 101.75H93.375C95.5 101.75 97.125 103.375 97.125 105.5C97.125 107.625 95.5 109.25 93.375 109.25Z" fill="#454B54"/>
</svg>
