<?xml version="1.0" encoding="UTF-8"?>
<svg xmlns="http://www.w3.org/2000/svg" xmlns:xlink="http://www.w3.org/1999/xlink" width="64pt" height="64pt" viewBox="0 0 64 64" version="1.1">
<g id="surface1010388">
<path style=" stroke:none;fill-rule:nonzero;fill:rgb(46.27451%,92.54902%,100%);fill-opacity:1;" d="M 50.101562 21.25 C 49.898438 21.449219 49.75 21.75 49.800781 22.050781 C 49.851562 23 51.101562 45.75 26.949219 51.449219 C 26.851562 51.449219 17.25 53.449219 8.949219 49.351562 C 12.449219 49.25 17.5 48.351562 21 44.398438 C 21.25 44.101562 21.351562 43.699219 21.148438 43.300781 C 21 42.949219 20.648438 42.699219 20.25 42.699219 C 20.199219 42.75 14.949219 42.699219 12.5 37.699219 C 13.449219 37.75 14.648438 37.699219 15.648438 37.25 C 16.050781 37.050781 16.300781 36.648438 16.25 36.25 C 16.199219 35.800781 15.898438 35.449219 15.449219 35.398438 C 15.199219 35.351562 9.300781 34.050781 8.5 27.648438 C 9.398438 28.050781 10.550781 28.351562 11.648438 28.199219 C 12.050781 28.148438 12.351562 27.851562 12.449219 27.5 C 12.550781 27.101562 12.449219 26.699219 12.148438 26.449219 C 11.898438 26.25 6.398438 21.351562 9 15 C 11.851562 18 20.25 25.699219 30.449219 25.148438 C 30.75 25.148438 31 25 31.199219 24.75 C 31.398438 24.5 31.449219 24.199219 31.351562 23.898438 C 31.148438 23.148438 31.050781 22.351562 31.050781 21.550781 C 31.050781 16.351562 35.199219 12.101562 40.351562 12.101562 C 42.851562 12.101562 45.199219 13.101562 46.949219 14.898438 C 47.148438 15.101562 47.398438 15.199219 47.648438 15.199219 C 48.699219 15.199219 50.449219 15.101562 52.449219 14.300781 C 51.898438 15 51.050781 15.851562 49.800781 16.851562 C 49.449219 17.101562 49.300781 17.601562 49.5 18 C 49.648438 18.398438 50.101562 18.648438 50.5 18.648438 C 50.75 18.648438 51.949219 18.550781 53.300781 18.25 C 52.5 18.949219 51.5 19.949219 50.101562 21.25 Z M 50.101562 21.25 "/>
<path style=" stroke:none;fill-rule:nonzero;fill:rgb(100%,89.411765%,81.568629%);fill-opacity:1;" d="M 16.050781 32.550781 C 16.449219 32.5 16.75 32.199219 16.851562 31.851562 C 16.949219 31.449219 16.851562 31.050781 16.550781 30.800781 C 16.300781 30.601562 10.800781 25.699219 13.398438 19.351562 C 16.25 22.351562 24.648438 30.050781 34.851562 29.5 C 35.148438 29.5 35.398438 29.351562 35.601562 29.101562 C 35.800781 28.851562 35.851562 28.550781 35.75 28.25 C 35.550781 27.5 35.449219 26.699219 35.449219 25.898438 C 35.449219 20.699219 39.601562 16.449219 44.75 16.449219 C 46.398438 16.449219 51.851562 14.949219 52.398438 14.25 C 50.398438 15.050781 48.648438 15.148438 47.601562 15.148438 C 47.351562 15.148438 47.101562 15.050781 46.898438 14.851562 C 45.148438 13.050781 42.800781 12.050781 40.300781 12.050781 C 35.148438 12.050781 31 16.25 31 21.449219 C 31 22.25 31.101562 23.050781 31.300781 23.800781 C 31.351562 24.101562 31.300781 24.398438 31.148438 24.648438 C 30.949219 24.898438 30.699219 25.050781 30.398438 25.050781 C 20.199219 25.648438 11.800781 17.898438 8.949219 14.898438 C 6.351562 21.199219 11.851562 26.101562 12.101562 26.351562 C 12.398438 26.601562 12.5 27 12.398438 27.398438 C 12.300781 27.800781 11.949219 28.050781 11.601562 28.101562 C 10.449219 28.25 9.351562 27.949219 8.449219 27.550781 C 9 31.800781 11.75 33.800781 13.648438 34.699219 C 13.300781 33.898438 13.050781 33.050781 12.898438 32 C 13.75 32.398438 14.898438 32.75 16.050781 32.550781 Z M 20.050781 41.699219 C 20.449219 41.5 20.699219 41.101562 20.648438 40.699219 C 20.601562 40.25 20.300781 39.898438 19.851562 39.851562 C 19.699219 39.800781 17.351562 39.300781 15.449219 37.398438 C 14.550781 37.75 13.449219 37.800781 12.5 37.75 C 13.75 40.300781 15.75 41.601562 17.398438 42.199219 C 18.25 42.148438 19.25 42.050781 20.050781 41.699219 Z M 25.398438 48.851562 C 25.648438 48.550781 25.75 48.148438 25.550781 47.75 C 25.398438 47.398438 25.050781 47.148438 24.648438 47.148438 C 24.601562 47.148438 22.148438 47.148438 19.800781 45.550781 C 16.398438 48.5 12.050781 49.25 8.898438 49.351562 C 13.148438 51.449219 17.800781 51.949219 21.25 51.949219 C 22.75 51.199219 24.199219 50.199219 25.398438 48.851562 Z M 25.398438 48.851562 "/>
<path style=" stroke:none;fill-rule:nonzero;fill:rgb(26.666668%,29.411766%,32.941177%);fill-opacity:1;" d="M 12.101562 27.898438 C 11.75 27.898438 11.398438 27.800781 11.101562 27.550781 C 10.851562 27.300781 4.550781 21.699219 7.550781 14.398438 C 7.75 13.949219 8.148438 13.601562 8.648438 13.5 C 9.148438 13.398438 9.648438 13.550781 10 13.949219 C 18.351562 22.699219 26.148438 23.699219 29.648438 23.648438 C 29.5 22.949219 29.449219 22.25 29.449219 21.550781 C 29.449219 15.550781 34.300781 10.601562 40.25 10.601562 C 43.101562 10.601562 45.75 11.699219 47.75 13.699219 C 51.101562 13.5 53.101562 11.851562 53.148438 11.851562 C 53.800781 11.300781 54.75 11.398438 55.25 12 C 55.800781 12.648438 55.699219 13.601562 55.101562 14.101562 C 55 14.199219 52.199219 16.550781 47.601562 16.699219 C 47.550781 16.699219 47.550781 16.699219 47.5 16.699219 C 46.851562 16.699219 46.199219 16.398438 45.75 15.949219 C 44.300781 14.449219 42.300781 13.601562 40.199219 13.601562 C 36 13.550781 32.5 17.101562 32.5 21.449219 C 32.5 22.101562 32.601562 22.800781 32.75 23.449219 C 32.949219 24.199219 32.800781 24.949219 32.351562 25.550781 C 31.898438 26.148438 31.199219 26.550781 30.449219 26.550781 C 21.449219 27.050781 13.851562 21.601562 9.75 17.851562 C 9.449219 22.050781 12.898438 25.101562 13.050781 25.25 C 13.648438 25.800781 13.75 26.75 13.199219 27.351562 C 12.949219 27.699219 12.5 27.898438 12.101562 27.898438 Z M 47.949219 13.800781 Z M 49.800781 23.550781 C 49.300781 23.550781 48.800781 23.300781 48.5 22.800781 C 48.101562 22.101562 48.351562 21.148438 49.050781 20.75 C 51.75 19.199219 54.550781 15.648438 54.601562 15.601562 C 55.101562 14.949219 56.050781 14.851562 56.699219 15.351562 C 57.351562 15.851562 57.449219 16.800781 56.949219 17.449219 C 56.800781 17.601562 53.75 21.5 50.550781 23.351562 C 50.300781 23.449219 50.050781 23.550781 49.800781 23.550781 Z M 15.398438 36.851562 C 15.300781 36.851562 15.199219 36.851562 15.101562 36.800781 C 14.800781 36.75 7.898438 35.199219 6.949219 27.75 C 6.851562 26.949219 7.449219 26.199219 8.25 26.050781 C 9.050781 25.949219 9.800781 26.550781 9.949219 27.351562 C 10.648438 32.699219 15.550781 33.800781 15.75 33.851562 C 16.550781 34 17.101562 34.800781 16.898438 35.648438 C 16.699219 36.398438 16.101562 36.851562 15.398438 36.851562 Z M 15.398438 36.851562 "/>
<path style=" stroke:none;fill-rule:nonzero;fill:rgb(26.666668%,29.411766%,32.941177%);fill-opacity:1;" d="M 20.25 44.25 C 19.398438 44.300781 18.351562 44.050781 17.699219 43.851562 C 15.648438 43.25 12.800781 41.851562 11.148438 38.351562 C 10.800781 37.601562 11.101562 36.699219 11.851562 36.351562 C 12.601562 36 13.5 36.300781 13.851562 37.050781 C 15.75 41 19.800781 41.199219 20.148438 41.25 C 21 41.199219 21.75 41.898438 21.75 42.75 C 21.75 43.550781 21.050781 44.25 20.25 44.25 Z M 19.398438 41.449219 Z M 19.398438 41.449219 Z M 19.398438 41.449219 Z M 19.398438 41.449219 Z M 20.300781 47.5 C 20.199219 47.5 20.101562 47.5 20 47.449219 C 19.898438 47.449219 19.800781 47.398438 19.699219 47.351562 C 19.601562 47.300781 19.5 47.25 19.449219 47.199219 C 19.351562 47.148438 19.300781 47.101562 19.199219 47 C 19.148438 46.949219 19.050781 46.851562 19 46.75 C 18.949219 46.648438 18.898438 46.601562 18.851562 46.5 C 18.800781 46.398438 18.800781 46.300781 18.75 46.199219 C 18.75 46.101562 18.699219 46 18.699219 45.898438 C 18.699219 45.800781 18.699219 45.699219 18.75 45.601562 C 18.75 45.5 18.800781 45.398438 18.851562 45.300781 C 18.898438 45.199219 18.949219 45.101562 19 45.050781 C 19.050781 44.949219 19.101562 44.898438 19.199219 44.800781 C 19.25 44.75 19.351562 44.648438 19.449219 44.601562 C 19.550781 44.550781 19.601562 44.5 19.699219 44.449219 C 19.800781 44.398438 19.898438 44.398438 20 44.351562 C 20.199219 44.300781 20.398438 44.300781 20.601562 44.351562 C 20.699219 44.351562 20.800781 44.398438 20.898438 44.449219 C 21 44.5 21.101562 44.550781 21.148438 44.601562 C 21.25 44.648438 21.300781 44.699219 21.398438 44.800781 C 21.5 44.898438 21.550781 44.949219 21.601562 45.050781 C 21.648438 45.148438 21.699219 45.199219 21.75 45.300781 C 21.800781 45.398438 21.800781 45.5 21.851562 45.601562 C 21.851562 45.699219 21.898438 45.800781 21.898438 45.898438 C 21.898438 46 21.898438 46.101562 21.851562 46.199219 C 21.851562 46.300781 21.800781 46.398438 21.75 46.5 C 21.699219 46.601562 21.648438 46.699219 21.601562 46.75 C 21.550781 46.800781 21.5 46.898438 21.398438 47 C 21.351562 47.050781 21.25 47.148438 21.148438 47.199219 C 21.050781 47.25 21 47.300781 20.898438 47.351562 C 20.800781 47.398438 20.699219 47.398438 20.601562 47.449219 C 20.5 47.449219 20.398438 47.5 20.300781 47.5 Z M 20.300781 47.5 "/>
<path style=" stroke:none;fill-rule:nonzero;fill:rgb(26.666668%,29.411766%,32.941177%);fill-opacity:1;" d="M 8.949219 50.851562 C 8.148438 50.851562 7.449219 50.199219 7.449219 49.398438 C 7.449219 48.550781 8.101562 47.898438 8.898438 47.851562 C 11.550781 47.800781 13.949219 47.25 15.949219 46.300781 C 16.699219 45.949219 17.601562 46.25 17.949219 47 C 18.300781 47.75 18 48.648438 17.25 49 C 14.851562 50.148438 12.050781 50.75 8.949219 50.851562 Z M 8.949219 50.851562 "/>
<path style=" stroke:none;fill-rule:nonzero;fill:rgb(26.666668%,29.411766%,32.941177%);fill-opacity:1;" d="M 21.148438 53.449219 C 19.648438 53.449219 17.949219 53.351562 16.148438 53.101562 C 15.351562 53 14.75 52.199219 14.898438 51.398438 C 15 50.601562 15.800781 50 16.601562 50.148438 C 22 50.949219 26.601562 50 26.648438 50 C 49.5 44.550781 48.351562 23.050781 48.300781 22.148438 C 48.25 21.300781 48.851562 20.601562 49.699219 20.550781 C 50.550781 20.5 51.25 21.101562 51.300781 21.949219 C 51.351562 22.949219 52.648438 46.898438 27.300781 52.898438 C 27.101562 52.949219 24.648438 53.449219 21.148438 53.449219 Z M 21.148438 53.449219 "/>
</g>
</svg>
