<?xml version="1.0" encoding="UTF-8"?>
<svg xmlns="http://www.w3.org/2000/svg" xmlns:xlink="http://www.w3.org/1999/xlink" width="64pt" height="64pt" viewBox="0 0 64 64" version="1.1">
<g id="surface1019840">
<path style=" stroke:none;fill-rule:nonzero;fill:rgb(100%,65.882355%,41.568628%);fill-opacity:1;" d="M 12 52.5 L 52 52.5 C 54.75 52.5 57 50.25 57 47.5 L 57 16.5 C 57 13.75 54.75 11.5 52 11.5 L 12 11.5 C 9.25 11.5 7 13.75 7 16.5 L 7 47.5 C 7 50.25 9.25 52.5 12 52.5 Z M 12 52.5 "/>
<path style=" stroke:none;fill-rule:nonzero;fill:rgb(26.666668%,29.411766%,32.941177%);fill-opacity:1;" d="M 52 54 L 12 54 C 8.398438 54 5.5 51.101562 5.5 47.5 L 5.5 23 C 5.5 22.148438 6.148438 21.5 7 21.5 C 7.851562 21.5 8.5 22.148438 8.5 23 L 8.5 47.5 C 8.5 49.449219 10.050781 51 12 51 L 52 51 C 53.949219 51 55.5 49.398438 55.5 48 L 55.5 23 C 55.5 22.148438 56.148438 21.5 57 21.5 C 57.851562 21.5 58.5 22.148438 58.5 23 L 58.5 48 C 58.5 51.199219 55.449219 54 52 54 Z M 52 54 "/>
<path style=" stroke:none;fill-rule:nonzero;fill:rgb(100%,100%,100%);fill-opacity:1;" d="M 32 34.5 C 24.898438 34.5 18.300781 31.699219 13.398438 26.550781 C 12.851562 25.949219 12.851562 25 13.449219 24.449219 C 14.050781 23.898438 15 23.898438 15.550781 24.5 C 19.898438 29 25.699219 31.5 31.949219 31.5 C 38.199219 31.5 44.050781 29 48.351562 24.5 C 48.898438 23.898438 49.851562 23.898438 50.449219 24.449219 C 51.050781 25 51.050781 25.949219 50.5 26.550781 C 45.699219 31.699219 39.101562 34.5 32 34.5 Z M 32 34.5 "/>
<path style=" stroke:none;fill-rule:nonzero;fill:rgb(26.666668%,29.411766%,32.941177%);fill-opacity:1;" d="M 57 18 C 56.148438 18 55.5 17.351562 55.5 16.5 C 55.5 14.550781 53.949219 13 52 13 L 12 13 C 10.050781 13 8.5 14.550781 8.5 16.5 C 8.5 17.351562 7.851562 18 7 18 C 6.148438 18 5.5 17.351562 5.5 16.5 C 5.5 12.898438 8.398438 10 12 10 L 52 10 C 55.601562 10 58.5 12.898438 58.5 16.5 C 58.5 17.351562 57.851562 18 57 18 Z M 57 18 "/>
</g>
</svg>
