<?xml version="1.0" encoding="UTF-8"?>
<svg xmlns="http://www.w3.org/2000/svg" xmlns:xlink="http://www.w3.org/1999/xlink" width="64pt" height="64pt" viewBox="0 0 64 64" version="1.1">
<g id="surface1080930">
<path style=" stroke:none;fill-rule:nonzero;fill:rgb(61.960787%,0%,5.882353%);fill-opacity:1;" d="M 32 4.5 C 47.199219 4.5 59.5 16.800781 59.5 32 C 59.5 47.199219 47.199219 59.5 32 59.5 C 16.800781 59.5 4.5 47.199219 4.5 32 C 4.5 16.800781 16.800781 4.5 32 4.5 "/>
<path style=" stroke:none;fill-rule:nonzero;fill:rgb(83.529413%,68.235296%,78.431374%);fill-opacity:1;" d="M 32 4.5 C 31 4.5 30 4.550781 29.050781 4.648438 C 28.898438 4.648438 28.75 4.699219 28.648438 4.699219 C 42.199219 6.449219 52.648438 18 52.648438 32 C 52.648438 46 42.199219 57.550781 28.648438 59.300781 C 29.75 59.449219 30.898438 59.5 32.050781 59.5 C 47.25 59.5 59.550781 47.199219 59.550781 32 C 59.5 16.800781 47.199219 4.5 32 4.5 "/>
<path style=" stroke:none;fill-rule:nonzero;fill:rgb(9.803922%,10.588235%,11.372549%);fill-opacity:1;" d="M 32 61 C 16 61 3 48 3 32 C 3 16 16 3 32 3 C 48 3 61 16 61 32 C 61 48 48 61 32 61 Z M 32 6 C 17.648438 6 6 17.648438 6 32 C 6 46.351562 17.648438 58 32 58 C 46.351562 58 58 46.351562 58 32 C 58 17.648438 46.351562 6 32 6 Z M 32 6 "/>
<path style=" stroke:none;fill-rule:nonzero;fill:rgb(83.529413%,68.235296%,78.431374%);fill-opacity:1;" d="M 32 11.75 C 21.25 11.75 12.5 20.449219 12.5 31.25 C 12.5 35.199219 13.699219 38.898438 15.699219 41.949219 C 19.199219 36.648438 25.148438 33.199219 31.949219 33.199219 C 38.75 33.199219 44.75 36.699219 48.199219 41.949219 C 50.25 38.898438 51.398438 35.199219 51.398438 31.25 C 51.5 20.449219 42.75 11.75 32 11.75 Z M 32 28.898438 C 27.949219 28.898438 24.699219 25.648438 24.699219 21.601562 C 24.699219 17.550781 27.949219 14.300781 32 14.300781 C 36.050781 14.300781 39.300781 17.550781 39.300781 21.601562 C 39.300781 25.601562 36.050781 28.898438 32 28.898438 Z M 32 28.898438 "/>
<path style=" stroke:none;fill-rule:nonzero;fill:rgb(9.803922%,10.588235%,11.372549%);fill-opacity:1;" d="M 31.699219 30.199219 C 27.148438 30 23.648438 26.351562 23.648438 21.851562 C 23.648438 17.25 27.398438 13.449219 32.050781 13.449219 C 36.699219 13.449219 40.449219 17.199219 40.449219 21.851562 C 40.449219 26.199219 37.050781 29.851562 32.699219 30.199219 C 32.5 30.199219 32.351562 30.199219 32.199219 30.148438 C 32 30.199219 31.851562 30.199219 31.699219 30.199219 Z M 32 16.449219 C 29.050781 16.449219 26.601562 18.851562 26.601562 21.851562 C 26.601562 24.75 28.851562 27.101562 31.75 27.199219 C 31.851562 27.199219 31.949219 27.199219 32.101562 27.25 C 32.199219 27.199219 32.300781 27.199219 32.449219 27.199219 C 35.25 27 37.398438 24.648438 37.398438 21.851562 C 37.398438 18.851562 34.949219 16.449219 32 16.449219 Z M 47.300781 42.550781 C 46.800781 42.550781 46.351562 42.300781 46.050781 41.898438 C 42.949219 37.148438 37.648438 34.300781 32 34.300781 C 26.351562 34.300781 21.050781 37.148438 17.949219 41.898438 C 17.5 42.601562 16.550781 42.800781 15.851562 42.351562 C 15.148438 41.898438 14.949219 40.949219 15.398438 40.25 C 19.148438 34.648438 25.300781 31.300781 32 31.300781 C 38.699219 31.300781 44.851562 34.648438 48.550781 40.199219 C 49 40.898438 48.800781 41.800781 48.101562 42.300781 C 47.898438 42.449219 47.601562 42.550781 47.300781 42.550781 Z M 47.300781 42.550781 "/>
</g>
</svg>
