<svg width="160" height="160" viewBox="0 0 160 160" fill="none" xmlns="http://www.w3.org/2000/svg">
<path d="M16.875 127.5H73.125V142.5H16.875V127.5ZM86.875 127.5H143.125V142.5H86.875V127.5Z" fill="white"/>
<path d="M136.875 127.5L128.125 68.75H121.875V50C121.875 46.5 119.125 43.75 115.625 43.75H110.625V28.75C110.625 27.375 109.5 26.25 108.125 26.25H90.625C89.25 26.25 88.125 27.375 88.125 28.75V43.75H71.875V28.75C71.875 27.375 70.75 26.25 69.375 26.25H51.875C50.5 26.25 49.375 27.375 49.375 28.75V43.75H44.375C40.875 43.75 38.125 46.5 38.125 50V68.75H31.875L23.125 127.5H29.375V142.5H73.125V127.5H66.875V68.75H93.125V127.5H99.375V142.5H143.125V127.5H136.875Z" fill="#88E3FF"/>
<path d="M25 115C40.375 114.875 53.125 76.875 56.25 26.25H51.875C50.5 26.25 49.375 27.375 49.375 28.75V43.75H44.375C40.875 43.75 38.125 46.5 38.125 50V68.75H31.875L25 115Z" fill="white"/>
<path d="M66.875 68.75H55.625V105C55.625 111.875 50 117.5 43.125 117.5H38.875C36.375 117.5 34.375 119.25 34 121.75V121.875C33.5 124.875 35.875 127.5 38.875 127.5H60.625V142.5H73.125V127.5H66.875V68.75ZM136.875 127.5L128.125 68.75H121.875V50C121.875 46.5 119.125 43.75 115.625 43.75H108.125C111.625 43.75 114.375 46.5 114.375 50V68.75H93.125V93.625C105.75 92.375 115.625 81.75 115.625 68.75H117.125L122.25 103.125C123.375 110.625 117.5 117.5 109.875 117.5H108.125C105.375 117.5 103.125 119.75 103.125 122.5C103.125 125.25 105.375 127.5 108.125 127.5H130.625V142.5H143.125V127.5H136.875Z" fill="#146B8E"/>
<path d="M16.875 127.5H73.125V142.5H16.875V127.5ZM66.875 68.75V127.5H23.125L31.875 68.75H46.875H66.875ZM49.375 28.75C49.375 27.375 50.5 26.25 51.875 26.25H69.375C70.75 26.25 71.875 27.375 71.875 28.75V43.75L49.375 28.75ZM88.125 43.75V28.75C88.125 27.375 89.25 26.25 90.625 26.25H108.125C109.5 26.25 110.625 27.375 110.625 28.75V43.75H88.125ZM38.125 58.75V50C38.125 46.5 40.875 43.75 44.375 43.75H115.625C119.125 43.75 121.875 46.5 121.875 50V58.75H38.125ZM136.875 127.5H93.125V68.75H128.125L136.875 127.5ZM86.875 127.5H143.125V142.5H86.875V127.5Z" stroke="#444B54" stroke-width="3" stroke-miterlimit="10" stroke-linecap="round" stroke-linejoin="round"/>
<path d="M90.625 81.25H69.375C62.5 81.25 56.875 75.625 56.875 68.75C56.875 61.875 62.5 56.25 69.375 56.25H90.625C97.5 56.25 103.125 61.875 103.125 68.75C103.125 75.625 97.5 81.25 90.625 81.25Z" fill="#88E3FF"/>
<path d="M90.625 81.25H69.375C62.5 81.25 56.875 75.625 56.875 68.75C56.875 61.875 62.5 56.25 69.375 56.25H90.625C97.5 56.25 103.125 61.875 103.125 68.75C103.125 75.625 97.5 81.25 90.625 81.25Z" stroke="#444B54" stroke-width="3" stroke-miterlimit="10" stroke-linecap="round" stroke-linejoin="round"/>
</svg>
