<?xml version="1.0" encoding="UTF-8"?>
<svg xmlns="http://www.w3.org/2000/svg" xmlns:xlink="http://www.w3.org/1999/xlink" width="64pt" height="64pt" viewBox="0 0 64 64" version="1.1">
<g id="surface1017481">
<path style=" stroke:none;fill-rule:nonzero;fill:rgb(39.607844%,61.960787%,78.823531%);fill-opacity:1;" d="M 42.449219 24.050781 L 35.351562 24.050781 L 35.351562 19.398438 C 35.351562 17.648438 36.5 17.25 37.351562 17.25 C 38.148438 17.25 42.398438 17.25 42.398438 17.25 L 42.398438 9.550781 L 35.398438 9.5 C 27.75 9.5 26 15.25 26 18.949219 L 26 24.101562 L 21.550781 24.101562 L 21.550781 32 L 26 32 C 26 42.199219 26 54.5 26 54.5 L 35.351562 54.5 C 35.351562 54.5 35.351562 42.101562 35.351562 32 L 41.648438 32 Z M 42.449219 24.050781 "/>
<path style=" stroke:none;fill-rule:nonzero;fill:rgb(100%,89.411765%,81.568629%);fill-opacity:1;" d="M 35.398438 14.5 L 42.300781 14.550781 L 42.300781 9.550781 L 35.398438 9.5 C 27.75 9.5 26 15.25 26 18.949219 L 26 23.949219 C 26 20.25 27.75 14.5 35.398438 14.5 Z M 35.398438 14.5 "/>
<path style=" stroke:none;fill-rule:nonzero;fill:rgb(26.666668%,29.411766%,32.941177%);fill-opacity:1;" d="M 35.351562 56 L 26 56 C 25.148438 56 24.5 55.351562 24.5 54.5 L 24.5 33.5 L 21.550781 33.5 C 20.699219 33.5 20.050781 32.851562 20.050781 32 C 20.050781 31.148438 20.699219 30.5 21.550781 30.5 L 26 30.5 C 26.851562 30.5 27.5 31.148438 27.5 32 L 27.5 53 L 33.851562 53 L 33.851562 32 C 33.851562 31.148438 34.5 30.5 35.351562 30.5 L 40.300781 30.5 L 40.800781 25.550781 L 35.351562 25.550781 C 34.5 25.550781 33.851562 24.898438 33.851562 24.050781 L 33.851562 19.398438 C 33.851562 16.851562 35.601562 15.75 37.351562 15.75 L 40.898438 15.75 L 40.898438 11 L 35.449219 11 C 33.050781 11 27.5 11.75 27.5 18.949219 L 27.5 24.101562 C 27.5 24.949219 26.851562 25.601562 26 25.601562 L 21.550781 25.601562 C 20.699219 25.601562 20.050781 24.949219 20.050781 24.101562 C 20.050781 23.25 20.699219 22.601562 21.550781 22.601562 L 24.5 22.601562 L 24.5 18.949219 C 24.5 13.898438 27.351562 8 35.398438 8 L 42.351562 8.050781 C 43.199219 8.050781 43.851562 8.699219 43.851562 9.550781 L 43.851562 17.25 C 43.851562 18.101562 43.199219 18.75 42.351562 18.75 L 37.300781 18.75 C 37 18.75 36.800781 18.75 36.800781 19.398438 L 36.800781 22.550781 L 42.398438 22.550781 C 42.800781 22.550781 43.25 22.75 43.5 23.050781 C 43.800781 23.351562 43.898438 23.800781 43.898438 24.199219 L 43.101562 32.148438 C 43 32.898438 42.398438 33.5 41.601562 33.5 L 36.800781 33.5 L 36.800781 54.5 C 36.851562 55.351562 36.148438 56 35.351562 56 Z M 35.351562 56 "/>
<path style=" stroke:none;fill-rule:nonzero;fill:rgb(26.666668%,29.411766%,32.941177%);fill-opacity:1;" d="M 42.351562 56 L 21 56 C 20.148438 56 19.5 55.351562 19.5 54.5 C 19.5 53.648438 20.148438 53 21 53 L 42.351562 53 C 43.199219 53 43.851562 53.648438 43.851562 54.5 C 43.851562 55.351562 43.148438 56 42.351562 56 Z M 50.351562 56 C 49.949219 56 49.550781 55.851562 49.300781 55.550781 C 49 55.25 48.851562 54.898438 48.851562 54.5 C 48.851562 54.398438 48.851562 54.300781 48.898438 54.199219 C 48.898438 54.101562 48.949219 54 49 53.898438 C 49.050781 53.800781 49.101562 53.75 49.148438 53.648438 C 49.199219 53.550781 49.25 53.5 49.351562 53.398438 C 49.898438 52.851562 50.898438 52.851562 51.449219 53.398438 C 51.75 53.699219 51.898438 54.050781 51.898438 54.449219 C 51.898438 54.851562 51.75 55.25 51.449219 55.5 C 51.101562 55.851562 50.75 56 50.351562 56 Z M 50.351562 56 "/>
</g>
</svg>
