<?xml version="1.0" encoding="UTF-8"?>
<svg xmlns="http://www.w3.org/2000/svg" xmlns:xlink="http://www.w3.org/1999/xlink" width="64pt" height="64pt" viewBox="0 0 64 64" version="1.1">
<g id="surface1083602">
<path style=" stroke:none;fill-rule:nonzero;fill:rgb(100%,41.176471%,48.235294%);fill-opacity:1;" d="M 43.101562 54.5 L 20.898438 54.5 C 16 54.5 12 50.5 12 45.601562 L 12 23.398438 C 12 18.5 16 14.5 20.898438 14.5 L 43.101562 14.5 C 48 14.5 52 18.5 52 23.398438 L 52 45.601562 C 52 50.5 48 54.5 43.101562 54.5 Z M 43.101562 54.5 "/>
<path style=" stroke:none;fill-rule:nonzero;fill:rgb(100%,89.411765%,81.568629%);fill-opacity:1;" d="M 12 23.398438 L 12 29 L 52 29 L 52 23.398438 C 52 18.5 48 14.5 43.101562 14.5 L 20.898438 14.5 C 16 14.5 12 18.5 12 23.398438 Z M 12 23.398438 "/>
<path style=" stroke:none;fill-rule:nonzero;fill:rgb(26.666668%,29.411766%,32.941177%);fill-opacity:1;" d="M 43.101562 56 L 20.898438 56 C 15.148438 56 10.5 51.351562 10.5 45.601562 L 10.5 23.398438 C 10.5 17.648438 15.148438 13 20.898438 13 L 43.101562 13 C 48.851562 13 53.5 17.648438 53.5 23.398438 L 53.5 45.601562 C 53.5 51.351562 48.851562 56 43.101562 56 Z M 20.898438 16 C 16.800781 16 13.5 19.300781 13.5 23.398438 L 13.5 45.601562 C 13.5 49.648438 16.800781 53 20.898438 53 L 43.101562 53 C 47.148438 53 50.5 49.699219 50.5 45.601562 L 50.5 23.398438 C 50.5 19.351562 47.199219 16 43.101562 16 Z M 20.898438 16 "/>
<path style=" stroke:none;fill-rule:nonzero;fill:rgb(100%,89.411765%,81.568629%);fill-opacity:1;" d="M 32 27 C 27.859375 27 24.5 30.359375 24.5 34.5 C 24.5 38.640625 27.859375 42 32 42 C 36.140625 42 39.5 38.640625 39.5 34.5 C 39.5 30.359375 36.140625 27 32 27 Z M 32 27 "/>
<path style=" stroke:none;fill-rule:nonzero;fill:rgb(26.666668%,29.411766%,32.941177%);fill-opacity:1;" d="M 32 43.5 C 27.050781 43.5 23 39.449219 23 34.5 C 23 33.648438 23.648438 33 24.5 33 C 25.351562 33 26 33.648438 26 34.5 C 26 37.800781 28.699219 40.5 32 40.5 C 35.300781 40.5 38 37.800781 38 34.5 C 38 31.199219 35.300781 28.5 32 28.5 C 31.148438 28.5 30.5 27.851562 30.5 27 C 30.5 26.148438 31.148438 25.5 32 25.5 C 36.949219 25.5 41 29.550781 41 34.5 C 41 39.449219 36.949219 43.5 32 43.5 Z M 32 43.5 "/>
<path style=" stroke:none;fill-rule:nonzero;fill:rgb(26.666668%,29.411766%,32.941177%);fill-opacity:1;" d="M 26.898438 30.449219 C 26.800781 30.449219 26.699219 30.449219 26.601562 30.398438 C 26.5 30.351562 26.398438 30.351562 26.300781 30.300781 C 26.199219 30.25 26.101562 30.199219 26.050781 30.148438 C 25.949219 30.101562 25.898438 30.050781 25.800781 29.949219 C 25.75 29.898438 25.648438 29.800781 25.601562 29.699219 C 25.550781 29.601562 25.5 29.550781 25.449219 29.449219 C 25.398438 29.351562 25.398438 29.25 25.351562 29.148438 C 25.351562 29.050781 25.300781 28.949219 25.300781 28.851562 C 25.300781 28.75 25.300781 28.648438 25.351562 28.550781 C 25.351562 28.449219 25.398438 28.351562 25.449219 28.25 C 25.5 28.148438 25.550781 28.050781 25.601562 28 C 25.648438 27.898438 25.699219 27.851562 25.800781 27.75 C 25.851562 27.699219 25.949219 27.601562 26.050781 27.550781 C 26.148438 27.5 26.199219 27.449219 26.300781 27.398438 C 26.398438 27.351562 26.5 27.351562 26.601562 27.300781 C 26.800781 27.25 27 27.25 27.199219 27.300781 C 27.300781 27.300781 27.398438 27.351562 27.5 27.398438 C 27.601562 27.449219 27.699219 27.5 27.75 27.550781 C 27.851562 27.601562 27.898438 27.648438 27.949219 27.75 C 28 27.800781 28.101562 27.898438 28.148438 28 C 28.199219 28.101562 28.25 28.148438 28.300781 28.25 C 28.351562 28.351562 28.351562 28.449219 28.398438 28.550781 C 28.398438 28.648438 28.449219 28.75 28.449219 28.851562 C 28.449219 28.949219 28.449219 29.050781 28.398438 29.148438 C 28.398438 29.25 28.351562 29.351562 28.300781 29.449219 C 28.25 29.550781 28.199219 29.648438 28.148438 29.699219 C 28.101562 29.800781 28.050781 29.851562 27.949219 29.949219 C 27.898438 30 27.800781 30.101562 27.75 30.148438 C 27.648438 30.199219 27.601562 30.25 27.5 30.300781 C 27.398438 30.351562 27.300781 30.351562 27.199219 30.398438 C 27.101562 30.449219 27 30.449219 26.898438 30.449219 Z M 43 21.5 C 41.894531 21.5 41 22.394531 41 23.5 C 41 24.605469 41.894531 25.5 43 25.5 C 44.105469 25.5 45 24.605469 45 23.5 C 45 22.394531 44.105469 21.5 43 21.5 Z M 9.5 56.148438 C 8.699219 56.148438 8 55.5 8 54.648438 C 8 53.800781 8.648438 53.148438 9.5 53.148438 L 54.5 52.898438 C 55.300781 52.898438 56 53.550781 56 54.398438 C 56 55.25 55.351562 55.898438 54.5 55.898438 Z M 62 55.898438 C 61.601562 55.898438 61.199219 55.75 60.949219 55.449219 C 60.898438 55.398438 60.800781 55.300781 60.75 55.199219 C 60.699219 55.101562 60.648438 55.050781 60.601562 54.949219 C 60.550781 54.851562 60.550781 54.75 60.5 54.648438 C 60.5 54.550781 60.449219 54.449219 60.449219 54.351562 C 60.449219 54.25 60.449219 54.148438 60.5 54.050781 C 60.5 53.949219 60.550781 53.851562 60.601562 53.75 C 60.648438 53.648438 60.699219 53.550781 60.75 53.5 C 60.800781 53.398438 60.851562 53.351562 60.949219 53.25 C 61 53.199219 61.101562 53.101562 61.148438 53.050781 C 61.25 53 61.300781 52.949219 61.398438 52.898438 C 61.5 52.851562 61.601562 52.851562 61.699219 52.800781 C 61.898438 52.75 62.101562 52.75 62.300781 52.800781 C 62.398438 52.800781 62.5 52.851562 62.601562 52.898438 C 62.699219 52.949219 62.800781 53 62.851562 53.050781 C 62.949219 53.101562 63 53.148438 63.050781 53.25 C 63.351562 53.550781 63.5 53.898438 63.5 54.300781 C 63.5 54.398438 63.5 54.5 63.449219 54.601562 C 63.449219 54.699219 63.398438 54.800781 63.351562 54.898438 C 63.300781 55 63.25 55.101562 63.199219 55.148438 C 63.148438 55.25 63.101562 55.300781 63 55.398438 C 62.800781 55.75 62.398438 55.898438 62 55.898438 Z M 62 55.898438 "/>
</g>
</svg>
