<svg width="159" height="159" viewBox="0 0 159 159" fill="none" xmlns="http://www.w3.org/2000/svg">
<path d="M79.9969 12.2976C62.3714 12.2976 45.4678 19.2993 33.0047 31.7624C20.5416 44.2255 13.5399 61.1291 13.5399 78.7546C13.5399 96.3801 20.5416 113.284 33.0047 125.747C45.4678 138.21 62.3714 145.212 79.9969 145.212C97.6224 145.212 114.526 138.21 126.989 125.747C139.452 113.284 146.454 96.3801 146.454 78.7546C146.454 61.1291 139.452 44.2255 126.989 31.7624C114.526 19.2993 97.6224 12.2976 79.9969 12.2976Z" fill="#8CCFB9"/>
<path d="M79.9969 34.4086C74.1732 34.4086 68.4067 35.5556 63.0263 37.7842C57.646 40.0128 52.7573 43.2793 48.6394 47.3972C44.5215 51.5152 41.255 56.4038 39.0264 61.7841C36.7978 67.1645 35.6508 72.931 35.6508 78.7547C35.6508 84.5783 36.7978 90.3449 39.0264 95.7252C41.255 101.105 44.5215 105.994 48.6394 110.112C52.7573 114.23 57.646 117.496 63.0263 119.725C68.4067 121.954 74.1732 123.101 79.9969 123.101C85.8205 123.101 91.587 121.954 96.9674 119.725C102.348 117.496 107.236 114.23 111.354 110.112C115.472 105.994 118.739 101.105 120.967 95.7252C123.196 90.3449 124.343 84.5783 124.343 78.7547C124.343 72.931 123.196 67.1645 120.967 61.7841C118.739 56.4038 115.472 51.5152 111.354 47.3972C107.236 43.2793 102.348 40.0128 96.9674 37.7842C91.587 35.5556 85.8205 34.4086 79.9969 34.4086Z" fill="white"/>
<path d="M79.9969 56.6438C74.1327 56.6438 68.5087 58.9733 64.3621 63.1199C60.2155 67.2665 57.8859 72.8905 57.8859 78.7547C57.8859 84.6189 60.2155 90.2429 64.3621 94.3895C68.5087 98.5361 74.1327 100.866 79.9969 100.866C85.861 100.866 91.4851 98.5361 95.6317 94.3895C99.7783 90.2429 102.108 84.6189 102.108 78.7547C102.108 72.8905 99.7783 67.2665 95.6317 63.1199C91.4851 58.9733 85.861 56.6438 79.9969 56.6438Z" fill="#F37C7E"/>
<path d="M79.6242 149.559C40.9922 149.559 9.44061 118.132 9.44061 79.3757C9.44061 40.6195 40.9922 9.19214 79.6242 9.19214C118.256 9.19214 149.808 40.7437 149.808 79.3757C149.932 118.132 118.38 149.559 79.6242 149.559ZM79.6242 16.6453C44.9672 16.6453 16.8937 44.8429 16.8937 79.3757C16.8937 113.909 45.0914 142.106 79.6242 142.106C114.157 142.106 142.355 113.909 142.355 79.3757C142.355 44.8429 114.281 16.6453 79.6242 16.6453Z" fill="#464C55"/>
<path d="M129.684 21.614L117.511 33.539L118.38 40.8679L125.709 41.7374L138.007 29.3156L130.43 28.446L129.684 21.614Z" fill="#F7F7FB"/>
<path d="M141.237 28.8188C140.74 27.4524 139.498 26.4586 138.131 26.3344L133.784 25.8375L133.287 21.4899C133.163 20.1235 132.169 18.8813 130.802 18.3844C129.436 17.8875 127.945 18.2602 126.952 19.2539L114.654 31.4274C113.784 32.2969 113.412 33.4149 113.536 34.5328L114.157 39.9985L77.0156 76.7672C75.525 78.1336 75.525 80.4938 77.0156 81.9844C77.7609 82.7297 78.6305 83.1024 79.6242 83.1024C80.618 83.1024 81.6117 82.7297 82.2328 81.9844L119.374 45.2157L124.84 45.961C124.964 45.961 125.213 45.961 125.337 45.961C126.33 45.961 127.2 45.5883 128.07 44.843L140.367 32.6696C141.361 31.6758 141.734 30.1852 141.237 28.8188ZM124.095 38.2594L121.486 37.8868L121.238 35.4024L126.703 29.9368C126.952 31.3032 128.07 32.5453 129.56 32.7938L124.095 38.2594Z" fill="#464C55"/>
</svg>
