<?xml version="1.0" encoding="UTF-8"?>
<svg xmlns="http://www.w3.org/2000/svg" xmlns:xlink="http://www.w3.org/1999/xlink" width="64pt" height="64pt" viewBox="0 0 64 64" version="1.1">
<g id="surface1018157">
<path style=" stroke:none;fill-rule:nonzero;fill:rgb(100%,89.411765%,81.568629%);fill-opacity:1;" d="M 47 62 L 7 62 C 4.25 62 2 59.75 2 57 L 2 17 C 2 14.25 4.25 12 7 12 L 47 12 C 49.75 12 52 14.25 52 17 L 52 57 C 52 59.75 49.75 62 47 62 Z M 47 62 "/>
<path style=" stroke:none;fill-rule:nonzero;fill:rgb(13.333334%,14.901961%,16.470589%);fill-opacity:1;" d="M 52 34.75 C 51.148438 34.75 50.5 35.398438 50.5 36.25 L 50.5 40.5 L 22 40.5 L 22 12 C 22 11.148438 21.351562 10.5 20.5 10.5 L 7 10.5 C 3.398438 10.5 0.5 13.398438 0.5 17 L 0.5 57 C 0.5 60.601562 3.398438 63.5 7 63.5 L 47 63.5 C 50.601562 63.5 53.5 60.601562 53.5 57 L 53.5 36.25 C 53.5 35.398438 52.851562 34.75 52 34.75 Z M 26.398438 43.5 L 43.398438 60.5 L 22 60.5 L 22 43.5 Z M 19 43.5 L 19 60.5 L 13 60.5 L 13 43.5 Z M 3.5 40.5 L 3.5 26 L 19 26 L 19 40.5 Z M 7 13.5 L 19 13.5 L 19 23 L 3.5 23 L 3.5 17 C 3.5 15.050781 5.050781 13.5 7 13.5 Z M 3.5 57 L 3.5 43.5 L 10 43.5 L 10 60.5 L 7 60.5 C 5.050781 60.5 3.5 58.949219 3.5 57 Z M 47.550781 60.449219 L 30.601562 43.5 L 50.5 43.5 L 50.5 57 C 50.5 58.75 49.25 60.199219 47.550781 60.449219 Z M 47.550781 60.449219 "/>
<path style=" stroke:none;fill-rule:nonzero;fill:rgb(78.823531%,32.941177%,62.7451%);fill-opacity:1;" d="M 53.199219 5.148438 L 53.050781 5 C 46.949219 -1.101562 37 -1.101562 30.898438 5 L 30.75 5.148438 C 24.648438 11.25 24.648438 21.199219 30.75 27.300781 L 38.898438 35.449219 C 39.75 36.300781 40.851562 36.699219 41.949219 36.699219 C 43.050781 36.699219 44.148438 36.300781 45 35.449219 L 53.148438 27.300781 C 59.300781 21.199219 59.300781 11.25 53.199219 5.148438 Z M 53.199219 5.148438 "/>
<path style=" stroke:none;fill-rule:nonzero;fill:rgb(100%,89.411765%,81.568629%);fill-opacity:1;" d="M 42 20 C 41.148438 20 40.5 19.351562 40.5 18.5 L 40.5 11 C 40.5 10.148438 41.148438 9.5 42 9.5 C 42.851562 9.5 43.5 10.148438 43.5 11 L 43.5 18.5 C 43.5 19.351562 42.851562 20 42 20 Z M 42 20 "/>
<path style=" stroke:none;fill-rule:nonzero;fill:rgb(100%,89.411765%,81.568629%);fill-opacity:1;" d="M 42 26 C 41.148438 26 40.5 25.351562 40.5 24.5 L 40.5 23.5 C 40.5 22.648438 41.148438 22 42 22 C 42.851562 22 43.5 22.648438 43.5 23.5 L 43.5 24.5 C 43.5 25.351562 42.851562 26 42 26 Z M 42 26 "/>
</g>
</svg>
