<svg xmlns="http://www.w3.org/2000/svg"  viewBox="0 0 64 64" width="64px" height="64px"><linearGradient id="SVGID_1_" x1="32" x2="32" y1="34.872" y2="39.348" gradientUnits="userSpaceOnUse"><stop offset="0" stop-color="#6dc7ff"/><stop offset="1" stop-color="#e6abff"/></linearGradient><path fill="url(#SVGID_1_)" d="M30.3,36.5L28,40h8l-2.3-3.5C32.9,35.3,31.1,35.3,30.3,36.5z"/><linearGradient id="SVGID_2_" x1="24" x2="24" y1="28.319" y2="32.724" gradientUnits="userSpaceOnUse"><stop offset="0" stop-color="#6dc7ff"/><stop offset="1" stop-color="#e6abff"/></linearGradient><circle cx="24" cy="31" r="3" fill="url(#SVGID_2_)"/><linearGradient id="SVGID_3_" x1="40" x2="40" y1="28.319" y2="32.724" gradientUnits="userSpaceOnUse"><stop offset="0" stop-color="#6dc7ff"/><stop offset="1" stop-color="#e6abff"/></linearGradient><circle cx="40" cy="31" r="3" fill="url(#SVGID_3_)"/><linearGradient id="SVGID_4_" x1="32" x2="32" y1="3.596" y2="59.341" gradientUnits="userSpaceOnUse"><stop offset="0" stop-color="#1a6dff"/><stop offset="1" stop-color="#c822ff"/></linearGradient><path fill="url(#SVGID_4_)" d="M59.1,17.7c1.8-1.8,1.8-4.6,0-6.4c-1-1-2.4-1.4-3.7-1.3c0.1-1.3-0.3-2.7-1.3-3.7c-1.8-1.8-4.6-1.8-6.4,0 c-1.6,1.6-1.7,4.2-0.3,6l-1.9,1.9c-3.9-3.6-8.9-5.5-14.3-5.3c-5.1,0.2-9.8,2.4-13.2,5.9l-1.5-1.5c1.4-1.8,1.3-4.4-0.3-6 c-1.8-1.8-4.6-1.8-6.4,0c-0.9,0.8-1.3,2-1.3,3.2c0,0.2,0,0.3,0,0.5c-1.3-0.1-2.7,0.3-3.7,1.3c-1.8,1.8-1.8,4.6,0,6.4 c1.6,1.6,4.2,1.7,6,0.3l2.6,2.6c-1,2.4-1.5,5-1.5,7.8V39c0,2.2,1.8,4,4,4h0.8l-1.9,2c-0.8-0.6-1.8-1-2.8-1c-1.2,0-2.3,0.5-3.2,1.3 c-1.8,1.8-1.8,4.6,0,6.4c1,1,2.4,1.4,3.7,1.3c-0.1,1.3,0.3,2.7,1.3,3.7c0.9,0.9,2,1.3,3.2,1.3c1.2,0,2.3-0.4,3.2-1.3 c1.6-1.6,1.7-4.2,0.3-6l2.5-2.4V49c0,2.2,1.8,4,4,4h10c2.2,0,3.9-1.7,4-3.9l2.5,2.5c-1.4,1.8-1.3,4.4,0.3,6c0.9,0.9,2,1.3,3.2,1.3 c1.2,0,2.3-0.4,3.2-1.3c1-1,1.4-2.4,1.3-3.7c1.3,0.1,2.7-0.3,3.7-1.3c1.8-1.8,1.8-4.6,0-6.4c-0.8-0.9-2-1.3-3.2-1.3 c-1,0-2,0.3-2.8,1l-2.9-3H48c2.2,0,4-1.8,4-4V29c0-2.9-0.6-5.6-1.7-8.1l2.8-2.8C54.9,19.5,57.5,19.3,59.1,17.7z M11.6,16.9 c-0.2-0.2-0.5-0.3-0.8-0.3c-0.3,0-0.6,0.2-0.7,0.4c-0.1,0.1-0.1,0.2-0.2,0.2c-0.9,0.9-2.6,0.9-3.5,0c-1-1-1-2.6,0-3.5 c0.9-0.9,2.6-0.9,3.5,0l0.3,0.3c0.4,0.4,1,0.4,1.4,0c0.2-0.2,0.3-0.5,0.3-0.7c0-0.3-0.1-0.5-0.3-0.7l-0.3-0.3c-1-1-1-2.6,0-3.5 c1-1,2.6-1,3.5,0s1,2.6,0,3.5c-0.1,0.1-0.2,0.1-0.3,0.2c-0.2,0.2-0.4,0.4-0.4,0.7c0,0.3,0.1,0.6,0.3,0.8l2.3,2.3 c-0.9,1-1.6,2.2-2.3,3.4L11.6,16.9z M18.4,49.9c-0.2,0.2-0.3,0.5-0.3,0.8c0,0.3,0.2,0.6,0.4,0.7c0.1,0.1,0.2,0.1,0.2,0.2 c1,1,1,2.6,0,3.5c-1,1-2.6,1-3.5,0s-1-2.6,0-3.5l0.1-0.1c0.2-0.2,0.3-0.5,0.3-0.7s-0.1-0.5-0.3-0.7c-0.4-0.4-1-0.4-1.4,0l-0.1,0.1 c-0.9,0.9-2.6,0.9-3.5,0c-1-1-1-2.6,0-3.5c1-1,2.6-1,3.5,0c0.1,0.1,0.1,0.2,0.2,0.3c0.2,0.2,0.4,0.4,0.7,0.4c0.3,0,0.6-0.1,0.8-0.3 l4.1-4.1H22c0.6,0,1,0.4,1,1v1.3L18.4,49.9z M48.4,48.1c0.2,0.2,0.5,0.3,0.8,0.3c0.3,0,0.6-0.2,0.7-0.4c0.1-0.1,0.1-0.2,0.2-0.2 c0.9-0.9,2.6-0.9,3.5,0c1,1,1,2.6,0,3.5c-0.9,0.9-2.6,0.9-3.5,0l-0.1-0.1c-0.4-0.4-1-0.4-1.4,0c-0.2,0.2-0.3,0.5-0.3,0.7 s0.1,0.5,0.3,0.7l0.1,0.1c1,1,1,2.6,0,3.5c-1,1-2.6,1-3.5,0c-1-1-1-2.6,0-3.5c0.1-0.1,0.2-0.1,0.3-0.2c0.2-0.2,0.4-0.4,0.4-0.7 s-0.1-0.6-0.3-0.8L41,46.3V44c0-0.6,0.4-1,1-1h1.3L48.4,48.1z M50,39c0,1.1-0.9,2-2,2h-6c-1.7,0-3,1.3-3,3v5c0,1.1-0.9,2-2,2v-2h-2 v2h-2v-4h-2v4h-2v-2h-2v2c-1.1,0-2-0.9-2-2v-5c0-1.7-1.3-3-3-3h-6c-1.1,0-2-0.9-2-2v-9.5c0-2.6,0.6-5.2,1.6-7.5H16c1.7,0,3,1.3,3,3 v1h2v-1c0-2.6-1.9-4.7-4.4-4.9c1.6-2.7,3.8-5,6.4-6.5V16h2v-3.5c0.6-0.3,1.3-0.5,2-0.7V18h2v-6.7c0.7-0.1,1.3-0.2,2-0.2v9h2v-9 c0.7,0,1.3,0.1,2,0.2V18h2v-6.3c0.7,0.2,1.3,0.4,2,0.7V16h2v-2.6c1.2,0.7,2.4,1.6,3.5,2.6c1.2,1.2,2.3,2.5,3.1,4 C45,20.2,43,22.4,43,25v1h2v-1c0-1.7,1.3-3,3-3h0.6c0.9,2.2,1.4,4.6,1.4,7V39z M49.3,19c-0.7-1.2-1.5-2.3-2.4-3.3l2.7-2.7 c0.2-0.2,0.3-0.5,0.3-0.8c0-0.3-0.2-0.6-0.4-0.7c-0.1-0.1-0.2-0.1-0.2-0.2c-1-1-1-2.6,0-3.5c1-1,2.6-1,3.5,0c1,1,1,2.6,0,3.5 l-0.3,0.3c-0.2,0.2-0.3,0.5-0.3,0.7c0,0.3,0.1,0.5,0.3,0.7c0.4,0.4,1,0.4,1.4,0l0.3-0.3c1-1,2.6-1,3.5,0c1,1,1,2.6,0,3.5 c-1,1-2.6,1-3.5,0c-0.1-0.1-0.1-0.2-0.2-0.3c-0.2-0.2-0.4-0.4-0.7-0.4c-0.3,0-0.6,0.1-0.8,0.3L49.3,19z"/><linearGradient id="SVGID_5_" x1="24" x2="24" y1="3.596" y2="59.341" gradientUnits="userSpaceOnUse"><stop offset="0" stop-color="#1a6dff"/><stop offset="1" stop-color="#c822ff"/></linearGradient><path fill="url(#SVGID_5_)" d="M24,27c-2.2,0-4,1.8-4,4s1.8,4,4,4s4-1.8,4-4S26.2,27,24,27z M24,33c-1.1,0-2-0.9-2-2s0.9-2,2-2s2,0.9,2,2 S25.1,33,24,33z"/><linearGradient id="SVGID_6_" x1="40" x2="40" y1="3.596" y2="59.341" gradientUnits="userSpaceOnUse"><stop offset="0" stop-color="#1a6dff"/><stop offset="1" stop-color="#c822ff"/></linearGradient><path fill="url(#SVGID_6_)" d="M40,27c-2.2,0-4,1.8-4,4s1.8,4,4,4s4-1.8,4-4S42.2,27,40,27z M40,33c-1.1,0-2-0.9-2-2s0.9-2,2-2s2,0.9,2,2 S41.1,33,40,33z"/></svg>